<svg width="402" height="303" fill="none" xmlns="http://www.w3.org/2000/svg">
  <path d="M13.543 42.305C54.809-6.463 97.87 61.448 206.988 23.747c109.118-37.7 173.73-36.529 192.274 47.86C413.5 136.397 365.137 148.126 387 201c21.863 52.874 14.891 123.851-107.592 93.298-121.084-30.205-286.803 78.333-257.471-79.309 18.276-98.227-49.66-123.915-8.394-172.684z" fill="#371D5A"/>
  <path d="M170.672 140v-24.816h4.296v3.6c.608-1.04 1.56-1.96 2.856-2.76 1.296-.8 2.936-1.2 4.92-1.2 1.568 0 3.008.312 4.32.936 1.328.624 2.384 1.6 3.168 2.928.8 1.312 1.2 3.008 1.2 5.088V140h-4.44v-15.792c0-1.936-.512-3.368-1.536-4.296-1.008-.944-2.32-1.416-3.936-1.416-1.12 0-2.168.184-3.144.552-.976.352-1.768.896-2.376 1.632-.608.72-.912 1.632-.912 2.736V140h-4.416zm30.871-11.376c0 1.568.256 2.992.768 4.272.528 1.264 1.32 2.272 2.376 3.024 1.072.752 2.408 1.128 4.008 1.128 1.584 0 2.944-.368 4.08-1.104 1.152-.736 1.888-1.8 2.208-3.192h4.2c-.304 1.68-.976 3.096-2.016 4.248a10.061 10.061 0 01-3.768 2.616 12.534 12.534 0 01-4.608.864c-2.32 0-4.36-.504-6.12-1.512-1.76-1.008-3.136-2.456-4.128-4.344-.992-1.888-1.488-4.152-1.488-6.792 0-2.608.448-4.896 1.344-6.864.896-1.968 2.192-3.504 3.888-4.608 1.712-1.104 3.768-1.656 6.168-1.656 3.504 0 6.192 1.112 8.064 3.336 1.872 2.208 2.808 5.192 2.808 8.952v1.632h-17.784zm.024-3h13.488c0-2.128-.544-3.92-1.632-5.376-1.088-1.456-2.752-2.184-4.992-2.184-1.552 0-2.84.376-3.864 1.128a6.654 6.654 0 00-2.28 2.856 8.664 8.664 0 00-.72 3.576zm32.476 14.856c-1.744 0-3.352-.272-4.824-.816-1.472-.544-2.704-1.376-3.696-2.496-.976-1.136-1.584-2.6-1.824-4.392h4.031c.321 1.456 1.049 2.552 2.185 3.288 1.152.736 2.52 1.104 4.104 1.104 1.664 0 3.008-.312 4.032-.936 1.024-.624 1.536-1.584 1.536-2.88 0-1.744-1.096-2.88-3.288-3.408l-5.136-1.272c-2.016-.48-3.624-1.232-4.824-2.256-1.184-1.024-1.777-2.456-1.777-4.296-.015-2.176.769-3.952 2.353-5.328 1.584-1.392 3.952-2.088 7.104-2.088 2.688 0 4.856.608 6.504 1.824 1.664 1.216 2.528 2.984 2.592 5.304h-3.912c-.176-1.184-.712-2.12-1.608-2.808-.896-.704-2.104-1.056-3.624-1.056-1.584 0-2.872.32-3.864.96-.992.624-1.489 1.6-1.489 2.928 0 .88.353 1.576 1.057 2.088.704.496 1.744.912 3.12 1.248l4.968 1.248c1.52.4 2.704.968 3.552 1.704.848.736 1.44 1.544 1.776 2.424.336.88.504 1.728.504 2.544 0 2.288-.84 4.088-2.52 5.4-1.68 1.312-4.024 1.968-7.032 1.968zm27.846-22.056h-5.592v15.432c0 1.328.208 2.144.624 2.448.432.288 1.232.432 2.4.432h2.712v2.976c-.32.112-.784.208-1.392.288-.608.08-1.368.12-2.28.12-2.576 0-4.312-.52-5.208-1.56-.88-1.04-1.32-2.56-1.32-4.56v-15.576h-4.032v-3.24h4.152l1.08-7.224h3.264v7.2h5.592v3.264zm11.961-13.104v4.608h-4.704v-4.608h4.704zm-.12 35.784c0 2.32-.504 4.04-1.512 5.16-.992 1.136-2.752 1.704-5.28 1.704-1.36 0-2.216-.096-2.568-.288l-.552-.288v-2.952l2.448-.12c1.12-.08 1.904-.376 2.352-.888.448-.496.672-1.32.672-2.472v-25.776h4.44v25.92zm16.281-.624c-1.744 0-3.352-.272-4.824-.816-1.472-.544-2.704-1.376-3.696-2.496-.976-1.136-1.584-2.6-1.824-4.392h4.032c.32 1.456 1.048 2.552 2.184 3.288 1.152.736 2.52 1.104 4.104 1.104 1.664 0 3.008-.312 4.032-.936 1.024-.624 1.536-1.584 1.536-2.88 0-1.744-1.096-2.88-3.288-3.408l-5.136-1.272c-2.016-.48-3.624-1.232-4.824-2.256-1.184-1.024-1.776-2.456-1.776-4.296-.016-2.176.768-3.952 2.352-5.328 1.584-1.392 3.952-2.088 7.104-2.088 2.688 0 4.856.608 6.504 1.824 1.664 1.216 2.528 2.984 2.592 5.304h-3.912c-.176-1.184-.712-2.12-1.608-2.808-.896-.704-2.104-1.056-3.624-1.056-1.584 0-2.872.32-3.864.96-.992.624-1.488 1.6-1.488 2.928 0 .88.352 1.576 1.056 2.088.704.496 1.744.912 3.12 1.248l4.968 1.248c1.52.4 2.704.968 3.552 1.704.848.736 1.44 1.544 1.776 2.424.336.88.504 1.728.504 2.544 0 2.288-.84 4.088-2.52 5.4-1.68 1.312-4.024 1.968-7.032 1.968zm-104.867 30.704v4.872h-5.232V196h-7.008v-19.944h-4.584v-4.872h4.584v-3.576c0-2 .584-3.552 1.752-4.656 1.184-1.104 2.856-1.656 5.016-1.656h5.688l.024 4.656h-3.264c-.896 0-1.512.224-1.848.672-.32.432-.48 1.152-.48 2.16v2.4h5.352zm11.232-9.864v6.312h-6.816v-6.312h6.816zm-.072 9.864V196h-6.696v-24.816h6.696zM202.812 196v-24.816h6.745v5.88c.592-1.904 1.56-3.44 2.904-4.608 1.344-1.168 3-1.752 4.968-1.752.528 0 .888.048 1.08.144v6.672a2.23 2.23 0 00-.528-.096 8.193 8.193 0 00-.528-.072c-2.768-.24-4.736.128-5.904 1.104-1.152.976-1.728 2.296-1.728 3.96V196h-7.009zm25.12-10.8c-.016 1.904.44 3.416 1.368 4.536.928 1.12 2.232 1.68 3.912 1.68 1.2 0 2.248-.256 3.144-.768.912-.512 1.544-1.352 1.896-2.52h6.312c-.272 1.76-.976 3.264-2.112 4.512a11.017 11.017 0 01-4.08 2.856c-1.6.656-3.264.984-4.992.984-2.464 0-4.624-.512-6.48-1.536-1.856-1.04-3.304-2.504-4.344-4.392-1.04-1.888-1.56-4.112-1.56-6.672 0-2.48.472-4.712 1.416-6.696.944-2 2.312-3.576 4.104-4.728 1.808-1.168 3.976-1.752 6.504-1.752 2.528 0 4.648.536 6.36 1.608 1.728 1.056 3.024 2.536 3.888 4.44.88 1.888 1.32 4.072 1.32 6.552v1.896h-16.656zm-.024-4.176h10.128c0-1.504-.416-2.784-1.248-3.84-.832-1.056-2.088-1.584-3.768-1.584-1.088 0-2.016.264-2.784.792a5.21 5.21 0 00-1.728 2.04c-.4.816-.6 1.68-.6 2.592zm32.201 15.456c-2.432 0-4.552-.52-6.36-1.56-1.792-1.04-3.184-2.512-4.176-4.416-.976-1.904-1.464-4.16-1.464-6.768 0-2.608.488-4.888 1.464-6.84.992-1.952 2.384-3.472 4.176-4.56 1.808-1.088 3.936-1.632 6.384-1.632 2.448 0 4.568.536 6.36 1.608 1.792 1.072 3.176 2.584 4.152 4.536.976 1.936 1.464 4.232 1.464 6.888 0 2.496-.48 4.704-1.44 6.624-.944 1.904-2.312 3.4-4.104 4.488-1.776 1.088-3.928 1.632-6.456 1.632zm.024-5.208c1.232 0 2.224-.36 2.976-1.08.752-.72 1.296-1.664 1.632-2.832.352-1.184.528-2.472.528-3.864 0-1.312-.16-2.544-.48-3.696-.32-1.168-.856-2.112-1.608-2.832-.736-.736-1.752-1.104-3.048-1.104-1.232 0-2.232.344-3 1.032-.752.688-1.304 1.608-1.656 2.76-.352 1.152-.528 2.432-.528 3.84 0 1.296.16 2.544.48 3.744.32 1.184.856 2.152 1.608 2.904.752.752 1.784 1.128 3.096 1.128zM276.781 196v-24.816h6.744v5.88c.592-1.904 1.56-3.44 2.904-4.608 1.344-1.168 3-1.752 4.968-1.752.528 0 .888.048 1.08.144v6.672a2.23 2.23 0 00-.528-.096 8.193 8.193 0 00-.528-.072c-2.768-.24-4.736.128-5.904 1.104-1.152.976-1.728 2.296-1.728 3.96V196h-7.008zm19.5 0v-24.816h6.864v3.504c.752-1.088 1.76-2.024 3.024-2.808 1.28-.784 2.888-1.176 4.824-1.176 1.264 0 2.552.336 3.864 1.008a7.216 7.216 0 013.096 2.976c.8-1.136 1.848-2.08 3.144-2.832 1.312-.768 2.768-1.152 4.368-1.152 1.232 0 2.472.28 3.72.84 1.248.56 2.288 1.488 3.12 2.784.848 1.296 1.272 3.064 1.272 5.304V196h-7.008v-15.504c0-1.504-.416-2.56-1.248-3.168-.832-.608-1.744-.912-2.736-.912-.624 0-1.256.128-1.896.384-.64.24-1.184.632-1.632 1.176-.448.544-.672 1.256-.672 2.136V196h-6.984v-16.128c0-1.12-.424-1.976-1.272-2.568-.848-.592-1.736-.888-2.664-.888-.96 0-1.896.304-2.808.912-.912.608-1.368 1.536-1.368 2.784V196h-7.008z" fill="#9AE4EA"/>
  <mask id="a" maskUnits="userSpaceOnUse" x="64" y="118" width="78" height="78">
    <path fill-rule="evenodd" clip-rule="evenodd" d="M109.927 118c-.564 0-1.087.121-1.571.283 1.027.688 1.591 1.598 1.873 2.629.021.142.061.243.081.384.02.122.04.243.04.364.081 1.78-.463 2.002-.846 3.054-.584 1.355-.423 2.811.282 3.984.061.141.141.303.242.445-.765-5.117 3.485-5.885 4.27-7.483.061-1.395-1.087-2.325-1.994-2.972-.866-.526-1.652-.688-2.377-.688zm6.406 1.153c-.081.465-.02.343-.04.586-.02.162-.02.364-.041.526-.04.162-.08.324-.141.485-.04.162-.1.324-.161.486-.08.161-.141.303-.221.465-.061.081-.101.162-.161.242l-.121.182c-.101.142-.202.284-.302.405-.121.121-.222.263-.363.364v.02c-.121.101-.242.223-.383.324-.423.323-.906.566-1.349.869-.141.101-.282.182-.403.304a2.974 2.974 0 00-.383.323c-.141.122-.242.243-.363.385-.1.121-.221.262-.302.404-.1.142-.201.283-.282.425-.08.161-.141.303-.221.465-.061.162-.121.303-.161.465-.061.182-.101.344-.141.505-.021.081-.021.182-.041.263-.02.081-.02.162-.04.243 0 .162-.02.344-.02.506 0 .121 0 .242.02.364 0 .161.02.323.06.505.021.162.061.324.101.486.061.161.101.323.161.485.041.101.101.202.141.283l-4.633-1.8a51.45 51.45 0 00-2.336-.607l-1.269-.303a37.1 37.1 0 00-3.666-.546c-.04 0-.061-.02-.101-.02a35.975 35.975 0 00-3.606-.182c-.886 0-1.773.04-2.639.101a38.278 38.278 0 00-3.686.445c-.302.04-.604.101-.906.162-.625.121-1.23.263-1.814.404l-.906.243c-.302.121-.584.263-.866.384l-.665.303c-.04.021-.08.021-.1.041-.202.101-.383.182-.565.283-.06.02-.1.04-.14.061a8.887 8.887 0 00-.625.323c-.141.061-.282.142-.403.202-.06.041-.14.081-.181.102-.181.101-.363.202-.524.303a5.065 5.065 0 00-.483.303c-.141.101-.282.182-.403.283-.02.021-.04.021-.06.041a4.68 4.68 0 00-.383.283l-.04.04-.303.243c-.04.02-.08.061-.12.081-.101.081-.202.182-.303.263-.02.04-.06.06-.08.081-.121.121-.242.222-.363.343-.02 0-.02.021-.04.041-.121.101-.242.222-.363.344-.02.02-.02.04-.04.04-.1.101-.202.202-.302.324-.04.04-.101.081-.141.121-.101.121-.222.243-.343.364-.02.04-.06.061-.08.101-.161.162-.302.324-.464.485l-.06.061c-.322.344-.665.688-1.027.991-.363.324-.746.627-1.128.89-.403.283-.786.526-1.21.768a12.13 12.13 0 01-1.268.607c-.423.182-.866.344-1.31.485-.846.182-1.712.526-2.457.587-.161 0-.342.04-.504.061-.18.04-.342.08-.503.121l-.484.182a5.192 5.192 0 00-.483.222c-.141.101-.302.182-.443.283a3.407 3.407 0 00-.403.344c-.141.101-.282.243-.403.364-.12.142-.242.263-.342.405-.101.161-.222.303-.303.465-.1.141-.201.303-.282.465-.08.182-.16.344-.221.526-.06.162-.121.344-.181.526-.04.161-.081.323-.101.485 0 .02-.02.04-.02.061-.04.182-.04.424-.06.546-.02.141-.041.262-.041.404 0 .081 0 .182.02.263.02.142.04.263.08.384.041.122.081.243.142.364v.02c.06.122.14.243.221.364.081.122.162.243.262.364.1.102.222.223.343.324.12.121.241.222.382.324.484.424.605.566 1.23.889.1.061.2.102.321.162.02 0 .04.02.06.02 0 .041 0 .061.021.102.02.161.06.323.1.485.041.182.102.344.162.485.06.122.1.243.161.364.02.041.04.081.06.101a8.6 8.6 0 00.242.445l.302.425c.101.121.222.263.343.384.12.122.242.223.383.344 0 0 .02.02.04.02.12.101.242.203.362.283.141.102.282.182.444.263.14.081.302.162.463.223.12.06.262.101.403.141.02.021.04.021.08.041.081.02.182.04.262.06-.06 1.092-.08 2.124.08 2.488.182.404 1.068-.829 1.955-2.245-.121 1.395-.202 3.034 0 3.519.221.505 1.43-1.072 2.477-2.811 14.282-3.317 27.315 6.593 28.685 20.587-.262-2.184-2.941-3.398-4.17-3.094-.604 1.496-1.631 3.417-3.283 4.611a13.02 13.02 0 00-.202-4.045 13.1 13.1 0 01-2.498 5.096c-1.913.142-3.827-.789-4.834-2.184-.08-.061-.1-.182-.161-.263a3.6 3.6 0 01-.161-.425c-.06-.141-.1-.283-.121-.424-.02-.142-.02-.283-.02-.445v-.303c.02-.142.06-.284.1-.425.04-.142.081-.283.141-.425.081-.141.142-.283.242-.424.343-.971.343-1.76-.282-2.225a2.235 2.235 0 00-.383-.202c-.08-.021-.18-.061-.261-.081-.06-.02-.101-.041-.162-.061-.14-.04-.282-.081-.423-.101a1.545 1.545 0 00-.423-.061 3.318 3.318 0 00-.443-.04c-.1 0-.201.02-.302.02-.161 0-.302.02-.443.061-.141.02-.282.04-.423.081-.141.04-.282.081-.423.141-.141.061-.262.122-.403.182-.12.061-.242.142-.383.203-4.693 3.073-1.893 10.273 1.31 12.356-1.209.222-2.438.485-2.78.748l-.04.04c.866.526 1.772.971 2.719 1.355 1.29.425 2.659.809 3.263.971v.02c1.672.344 3.364.465 5.076.364 8.924-.627 16.236-7.442 17.566-16.421.04.182.08.344.121.526.06.364.141.748.181 1.133v.02c.04.182.06.364.08.526v.081c.021.182.041.364.041.525.02.223.04.445.04.668v.323c0 .101.02.223.02.324 0 .121-.02.243-.02.364v.283c0 .142-.02.263-.02.404 0 .081 0 .162-.02.263 0 .142-.021.284-.021.445-.02.061-.02.122-.02.182l-.06.465c0 .061 0 .122-.02.182-.021.203-.061.385-.081.587v.04c-.04.182-.081.385-.121.567v.06l-.121.546c0 .021-.02.061-.02.081-.04.182-.081.364-.141.546v.061c-.06.202-.121.384-.161.566-.02.02-.02.041-.02.041l-.182.606c-.08.203-.141.385-.221.587-.081.202-.141.404-.222.586-.08.202-.161.384-.241.587h-.021c-.08.182-.161.384-.261.566-.021.061-.041.101-.061.142-.02.02-.02.04-.04.06a19.126 19.126 0 01-5.661 6.795c-.161.101-.322.223-.483.344-.04.04-.101.061-.141.101a8.502 8.502 0 01-.443.303l.06.122h.02l.846-.122h.021c.523-.081 1.047-.182 1.571-.283.141-.02.302-.06.443-.101.101-.02.181-.04.282-.061.141-.02.282-.06.423-.081.121-.04.242-.06.363-.101a37.99 37.99 0 005.841-1.941A32.292 32.292 0 01100.5 196c2.317-.162 4.633-.546 6.869-1.193a32.21 32.21 0 0019.036-15.268 32.346 32.346 0 01-5.419 13.003 31.734 31.734 0 005.379-4.49 32.1 32.1 0 008.48-17.189c.685 3.195.886 6.491.584 9.747 14.544-20.364 1.209-41.477-4.371-47.038-.02-.041-.04-.061-.04-.101-.02.02-.02.02-.02.04 0-.02 0-.02-.021-.04 0 .242-.02.485-.04.728-.06.465-.121.91-.201 1.355-.101.445-.222.889-.343 1.334-.141.425-.302.87-.483 1.295-.182.404-.383.829-.605 1.233-.221.384-.463.789-.725 1.153-.262.384-.544.748-.826 1.092-.302.364-.624.688-.946 1.011-.202.182-.383.344-.585.506l-.463.404c-.362.283-.725.546-1.128.789-.383.243-.785.485-1.188.687-.423.203-.846.385-1.269.567-.423.161-.867.303-1.31.424-.443.122-.906.223-1.349.304-.464.081-.927.121-1.37.162-.322.02-.645.04-.967.04-.463 0-.927-.04-1.37-.081-.463-.04-.926-.101-1.37-.202a10.098 10.098 0 01-1.349-.344h-.02c.443-.04.886-.081 1.329-.162a14.707 14.707 0 002.659-.728c.443-.162.866-.364 1.269-.566a14.23 14.23 0 001.209-.667c.382-.263.765-.526 1.128-.809.362-.283.705-.587 1.027-.91.343-.304.645-.648.947-.991.302-.364.584-.728.846-1.092.04-.061.081-.142.121-.203.201-.323.403-.647.584-.97a14.02 14.02 0 001.088-2.528c.141-.425.241-.87.342-1.315.081-.465.161-.91.202-1.355.04-.465.08-.93.08-1.375 0-.323-.02-.647-.04-.97-.04-.466-.101-.91-.161-1.355-.081-.465-.182-.91-.302-1.355-.141-.425-.282-.87-.444-1.295a13.812 13.812 0 00-.564-1.253 23.128 23.128 0 00-.684-1.194 22.515 22.515 0 00-.806-1.112 41.033 41.033 0 00-.927-1.031 12.125 12.125 0 00-.524-.506 37.168 37.168 0 00-2.799-1.982 3.791 3.791 0 00-.403-.202c-.665-.424-1.29-.647-1.914-.849z" fill="#9AE4EA"/>
  </mask>
  <g mask="url(#a)">
    <path d="M15 176.222c0 35.347 28.654 64 64 64 35.346 0 64-28.653 64-64 0-35.555-17.778-64-5.85-88.889 0 0-19.039 3.556-29.705 32 0 0-35.556-35.555-20.7-85.333 0 0-36.19 14.222-32.405 60.444 3.246 39.636-3.784 46.223-3.784 46.223 0-32-25.019-46.223-25.019-46.223C32.777 133.556 15 144.222 15 176.222z" fill="#FFB446"/>
    <path d="M125.196 191.379c0 26.621-20.554 49.347-47.17 48.833-25.048-.482-43.684-19.54-41.693-44.435.89-11.111 9.334-29.111 23.111-47.333L68.63 154C68.333 131.482 79 101.556 79 101.556c7.006 31.53 46.196 39.703 46.196 89.823z" fill="#FFDC64"/>
    <path d="M61.222 169.111c-3.555 21.334-10.666 29.1-10.666 42.667C50.556 226 63.29 240.222 79 240.222c15.823 0 28.488-12.928 28.444-28.75-.119-42.497-24.888-63.694-24.888-63.694 3.556 21.334-7.111 32-7.111 32-4.444-6.664-14.223-10.667-14.223-10.667z" fill="#fff"/>
  </g>
</svg>
